<?xml version="1.0" standalone="no"?>
<!DOCTYPE svg PUBLIC "-//W3C//DTD SVG 20010904//EN"
 "http://www.w3.org/TR/2001/REC-SVG-20010904/DTD/svg10.dtd">
<svg version="1.0" xmlns="http://www.w3.org/2000/svg"
 width="1080.000000pt" height="1080.000000pt" viewBox="0 0 1080.000000 1080.000000"
 preserveAspectRatio="xMidYMid meet">
<metadata>
Created by potrace 1.16, written by Peter Selinger 2001-2019
</metadata>
<g transform="translate(0.000000,1080.000000) scale(0.100000,-0.100000)"
fill="#000000" stroke="none">
<path d="M0 5400 l0 -5400 5400 0 5400 0 0 5400 0 5400 -5400 0 -5400 0 0
-5400z m5004 3547 c34 -58 54 -118 66 -196 7 -47 70 -1379 70 -1481 0 -5 19
-10 43 -10 l43 0 27 683 c31 750 37 841 67 921 26 67 61 121 80 121 22 0 67
-90 85 -167 10 -47 24 -269 45 -764 16 -384 30 -720 30 -746 l0 -48 45 0 c41
0 45 2 45 25 0 133 62 1444 71 1490 14 78 43 153 73 190 21 26 26 28 41 15 25
-21 63 -102 81 -172 23 -97 85 -1557 73 -1733 -17 -250 -73 -478 -156 -639
-26 -51 -62 -96 -125 -158 l-88 -88 0 -2112 c0 -2035 -1 -2114 -19 -2153 -36
-79 -111 -125 -201 -125 -89 0 -159 43 -203 125 l-22 40 -3 2122 -2 2121 -34
22 c-139 85 -262 327 -310 611 -38 220 -38 297 -7 1071 33 783 38 862 70 953
23 66 60 125 78 125 7 0 23 -19 37 -43z m-566 -3634 l2 -1953 -1182 0 c-1219
0 -1317 3 -1503 41 -500 104 -788 364 -870 784 -26 131 -17 392 18 526 86 333
288 563 596 680 l84 32 -59 33 c-197 112 -361 302 -439 509 -74 197 -70 470 9
665 61 153 180 302 319 400 76 55 244 134 348 165 80 24 267 60 354 68 22 2
553 3 1180 3 l1140 -1 3 -1952z m4411 1929 c521 -100 839 -379 906 -795 35
-219 2 -430 -97 -607 -35 -63 -142 -203 -185 -240 -52 -47 -109 -89 -182 -134
l-72 -44 48 -17 c347 -125 549 -356 639 -730 26 -109 31 -378 9 -491 -84 -423
-371 -679 -877 -783 -188 -39 -308 -42 -1513 -39 l-1160 3 -3 1940 c-1 1067 0
1946 3 1953 4 10 229 12 1187 9 1169 -3 1184 -4 1297 -25z"/>
<path d="M2087 7010 c-271 -32 -506 -142 -632 -296 -88 -109 -133 -236 -141
-404 -12 -225 67 -423 230 -578 128 -122 267 -183 455 -202 70 -7 458 -10
1131 -8 l1025 3 3 748 2 747 -1002 -1 c-552 -1 -1033 -5 -1071 -9z"/>
<path d="M2045 5273 c-154 -10 -359 -61 -480 -119 -252 -120 -387 -323 -414
-621 -43 -471 173 -763 649 -877 156 -38 182 -39 1278 -43 l1082 -4 0 836 0
835 -1032 -2 c-568 -1 -1055 -3 -1083 -5z"/>
<path d="M6645 7018 c-3 -7 -4 -346 -3 -753 l3 -740 1025 -3 c1066 -3 1184 0
1297 38 150 51 305 162 383 275 98 143 145 306 136 475 -20 399 -268 624 -771
701 -45 7 -432 13 -1068 16 -821 4 -998 2 -1002 -9z"/>
<path d="M6640 4446 l0 -836 1003 0 c611 0 1049 4 1122 11 627 54 933 371 884
911 -19 211 -79 347 -209 479 -127 127 -259 188 -535 246 -72 15 -193 17
-1172 21 l-1093 3 0 -835z"/>
</g>
</svg>
